<?xml version="1.0" encoding="utf-8"?>
<!-- Generator: Adobe Illustrator 15.1.0, SVG Export Plug-In . SVG Version: 6.00 Build 0)  -->
<!DOCTYPE svg PUBLIC "-//W3C//DTD SVG 1.1//EN" "http://www.w3.org/Graphics/SVG/1.1/DTD/svg11.dtd">
<svg version="1.1" id="Layer_1" xmlns="http://www.w3.org/2000/svg" xmlns:xlink="http://www.w3.org/1999/xlink" x="0px" y="0px"
	 width="800px" height="600px" viewBox="0 0 800 600" enable-background="new 0 0 800 600" xml:space="preserve">
<line fill="none" stroke="#342F29" stroke-miterlimit="10" x1="99.28" y1="100.874" x2="98.581" y2="158.217"/>
<line fill="none" stroke="#342F29" stroke-miterlimit="10" x1="78.301" y1="108.566" x2="132.147" y2="105.07"/>
<line fill="none" stroke="#342F29" stroke-miterlimit="10" x1="163.615" y1="108.566" x2="162.217" y2="169.406"/>
<line fill="none" stroke="#342F29" stroke-miterlimit="10" x1="162.916" y1="142.832" x2="186.692" y2="164.51"/>
<line fill="none" stroke="#342F29" stroke-miterlimit="10" x1="220.259" y1="134.44" x2="218.86" y2="173.602"/>
<line fill="none" stroke="#342F29" stroke-miterlimit="10" x1="266.413" y1="138.986" x2="244.734" y2="150.524"/>
<line fill="none" stroke="#342F29" stroke-miterlimit="10" x1="244.734" y1="150.524" x2="278.301" y2="169.406"/>
<line fill="none" stroke="#342F29" stroke-miterlimit="10" x1="278.301" y1="169.406" x2="251.727" y2="177.797"/>
<line fill="none" stroke="#342F29" stroke-miterlimit="10" x1="389.49" y1="144.755" x2="390.189" y2="173.602"/>
<line fill="none" stroke="#342F29" stroke-miterlimit="10" x1="435.644" y1="134.44" x2="406.972" y2="154.021"/>
<line fill="none" stroke="#342F29" stroke-miterlimit="10" x1="406.972" y1="154.021" x2="444.734" y2="159.179"/>
<line fill="none" stroke="#342F29" stroke-miterlimit="10" x1="444.734" y1="159.179" x2="418.161" y2="173.602"/>
<line fill="none" stroke="#342F29" stroke-miterlimit="10" x1="190.888" y1="274.301" x2="204.874" y2="218.356"/>
<line fill="none" stroke="#342F29" stroke-miterlimit="10" x1="209.07" y1="218.356" x2="220.259" y2="259.615"/>
<line fill="none" stroke="#342F29" stroke-miterlimit="10" x1="194.385" y1="246.329" x2="220.259" y2="246.329"/>
<line fill="none" stroke="#342F29" stroke-miterlimit="10" x1="292.287" y1="228.147" x2="289.49" y2="274.301"/>
<line fill="none" stroke="#342F29" stroke-miterlimit="10" x1="292.287" y1="228.147" x2="322.356" y2="238.986"/>
<line fill="none" stroke="#342F29" stroke-miterlimit="10" x1="322.356" y1="238.986" x2="284.594" y2="259.615"/>
<line fill="none" stroke="#342F29" stroke-miterlimit="10" x1="346.832" y1="238.986" x2="344.734" y2="292.482"/>
<line fill="none" stroke="#342F29" stroke-miterlimit="10" x1="361.518" y1="284.79" x2="382.497" y2="233.566"/>
<line fill="none" stroke="#342F29" stroke-miterlimit="10" x1="382.497" y1="233.566" x2="406.972" y2="277.797"/>
<line fill="none" stroke="#342F29" stroke-miterlimit="10" x1="372.007" y1="268.706" x2="400.296" y2="265.734"/>
<line fill="none" stroke="#342F29" stroke-miterlimit="10" x1="431.447" y1="284.79" x2="421.308" y2="214.161"/>
<line fill="none" stroke="#342F29" stroke-miterlimit="10" x1="421.308" y1="214.161" x2="465.713" y2="265.734"/>
<line fill="none" stroke="#342F29" stroke-miterlimit="10" x1="479" y1="228.147" x2="465.713" y2="265.734"/>
<line fill="none" stroke="#342F29" stroke-miterlimit="10" x1="506.272" y1="228.147" x2="506.972" y2="281.294"/>
<line fill="none" stroke="#342F29" stroke-miterlimit="10" x1="506.972" y1="281.294" x2="537.741" y2="277.797"/>
<line fill="none" stroke="#342F29" stroke-miterlimit="10" x1="511.867" y1="265.734" x2="537.741" y2="255.682"/>
<line fill="none" stroke="#342F29" stroke-miterlimit="10" x1="498.58" y1="239.947" x2="531.447" y2="239.947"/>
<line fill="none" stroke="#342F29" stroke-miterlimit="10" x1="565.014" y1="233.566" x2="567.812" y2="268.706"/>
<line fill="none" stroke="#342F29" stroke-miterlimit="10" x1="537.741" y1="228.147" x2="580.398" y2="225.35"/>
<line fill="none" stroke="#342F29" stroke-miterlimit="10" x1="341.238" y1="292.482" x2="358.72" y2="292.482"/>
<line fill="none" stroke="#342F29" stroke-miterlimit="10" x1="602.776" y1="164.51" x2="597.881" y2="238.986"/>
<line fill="none" stroke="#342F29" stroke-miterlimit="10" x1="593.686" y1="260.708" x2="584.595" y2="281.294"/>
<line fill="none" stroke="#342F29" stroke-miterlimit="10" x1="584.595" y1="281.294" x2="602.776" y2="279.546"/>
<line fill="none" stroke="#342F29" stroke-miterlimit="10" x1="597.881" y1="265.734" x2="613.266" y2="284.79"/>
<line fill="none" stroke="#342F29" stroke-miterlimit="10" x1="349.979" y1="429.546" x2="372.007" y2="402.972"/>
<line fill="none" stroke="#342F29" stroke-miterlimit="10" x1="372.007" y1="402.972" x2="372.007" y2="517.657"/>
<line fill="none" stroke="#342F29" stroke-miterlimit="10" x1="307.321" y1="521.854" x2="479" y2="517.657"/>
</svg>
